# xmcd
#
# Track frame offsets: 
#        183
#        16040
#        34960
#        50625
#        69113
#        82008
#        98100
#        114013
#        131220
#
# Disc length: 1936 seconds
#
# Revision: 0
# Processed by: cddbd v1.5.2PL0 Copyright (c) Steve Scherf et al.
# Submitted via: ExactAudioCopy v0.95b4
#
DISCID=6c078e09
DTITLE=Sarajane - Diadorim
DYEAR=1991
DGENRE=Axe
TTITLE0=Na beira do rio
TTITLE1=Meu amor
TTITLE2=Venha me amar
TTITLE3=Não sei por que
TTITLE4=Chula de lá
TTITLE5=O amor acabou
TTITLE6=Ninguém atura
TTITLE7=Jogo do Amor
TTITLE8=Tarde
EXTD=
EXTT0=
EXTT1=
EXTT2=
EXTT3=
EXTT4=
EXTT5=
EXTT6=
EXTT7=
EXTT8=
PLAYORDER=
